<?xml version="1.0" encoding="UTF-8"?>
<svg xmlns="http://www.w3.org/2000/svg" id="Layer_1" data-name="Layer 1" viewBox="0 0 300 64.9">
  <defs>
    <style>
      .cls-1 {
        fill: #1c2d46;
      }
    </style>
  </defs>
  <path class="cls-1" d="m281.11,34.83h14.58s1.4-7.54-4.09-13.19c-3-3.09-6.68-4.45-10.98-4.32-3.57.11-7,1.54-9.59,4-3.13,2.97-4.65,6.53-4.65,10.73s1.42,7.57,4.33,10.48c2.91,2.84,6.36,4.26,10.48,4.26s7.51-1.42,10.41-4.26c1.38-1.38,2.42-2.89,3.13-4.53h-7.34c-.06.07-.12.14-.19.21-1.59,1.59-3.59,2.42-6,2.42s-4.42-.83-6.07-2.42c-1.59-1.66-2.42-3.73-2.42-6.28s.83-4.62,2.42-6.21c1.66-1.66,3.66-2.48,6.07-2.48s4.42.83,6,2.48c.84.8,1.48,2,1.89,3.11h-2.11c-3.24,0-5.87,2.63-5.87,5.87v.13Z"></path>
  <path class="cls-1" d="m27.49,19.85V7.43c0-3.62,2.93-6.55,6.55-6.55h0v30.99c0,4.71-1.5,8.4-4.44,11.06-2.94,2.66-6.48,4.03-10.51,4.03s-7.71-1.43-10.65-4.37c-2.87-2.94-4.3-6.42-4.3-10.51s1.43-7.65,4.3-10.51c2.87-2.94,6.42-4.37,10.65-4.37,3.21,0,6.21,1.09,7.51,1.98l.89.68Zm-8.85,21.36c5,0,8.67-3.8,8.67-8.88s-3.8-8.88-8.67-8.88-8.67,3.73-8.67,8.88,3.8,8.88,8.67,8.88Z"></path>
  <path class="cls-1" d="m40.67,46.52v-21.64c0-3.54,2.87-6.41,6.41-6.41h0v28.04h-6.41Z"></path>
  <path class="cls-1" d="m243.2,46.52h-6.67v-15.62c0-4.62,1.22-8.02,3.59-10.26,2.44-2.24,5.35-3.4,8.66-3.4s6.23,1.15,8.66,3.4c2.44,2.24,3.66,5.71,3.66,10.26v15.62h-6.32v-15.62c0-4.82-2.3-7.4-5.83-7.4s-5.76,2.51-5.76,7.4v15.62Z"></path>
  <path class="cls-1" d="m206.1,21.68c2.92-2.92,6.38-4.35,10.53-4.35s7.54,1.43,10.46,4.35c2.92,2.92,4.35,6.38,4.35,10.46s-1.43,7.61-4.35,10.53c-2.92,2.85-6.39,4.28-10.46,4.28s-7.61-1.43-10.53-4.28c-2.92-2.92-4.35-6.39-4.35-10.53s1.43-7.54,4.35-10.46Zm2.17,10.46c0,2.51.82,4.55,2.38,6.18,1.63,1.56,3.6,2.38,5.98,2.38s4.35-.82,5.91-2.38c1.63-1.63,2.44-3.67,2.44-6.18s-.81-4.55-2.44-6.11c-1.56-1.63-3.53-2.45-5.91-2.45s-4.35.82-5.98,2.45c-1.56,1.56-2.38,3.6-2.38,6.11Z"></path>
  <path class="cls-1" d="m117.91,40.47v6.41h-1.69c-6.54,0-11.13-3.31-11.13-11.78V10.96c0-3.6,2.87-6.52,6.41-6.52v13.24h5.7v6.41h-5.7v10.87c0,3.69,1.64,5.5,4.98,5.5h1.42Z"></path>
  <path class="cls-1" d="m145.67,46.52v-2.25c-.2.21-.53.41-1,.76-.8.55-4.07,1.93-7.21,1.93-4.14,0-7.61-1.45-10.41-4.34-2.8-2.96-4.2-6.47-4.2-10.68s1.4-7.65,4.2-10.61c2.87-2.96,6.34-4.41,10.41-4.41s7.41,1.38,10.28,4.06c2.87,2.69,4.34,6.41,4.34,11.16v14.37h-6.41Zm-8.56-5.78c4.75,0,8.47-3.65,8.47-8.68s-3.58-8.68-8.47-8.68-8.47,3.72-8.47,8.68,3.72,8.68,8.47,8.68Z"></path>
  <path class="cls-1" d="m159.56,46.52V10.76c0-3.54,2.87-6.41,6.41-6.41v42.16s-6.41,0-6.41,0Z"></path>
  <path class="cls-1" d="m179.66,46.52c-1.82,0-3.57-.81-4.63-2.29-1.68-2.33-1.37-5.39.56-7.31l13.18-13.18h-14.67c0-3.54,2.87-6.41,6.41-6.41h10.58c1.82,0,3.57.81,4.63,2.29,1.68,2.33,1.37,5.39-.56,7.31l-13.18,13.18h8.91c3.54,0,6.41,2.87,6.41,6.41h-17.64Z"></path>
  <g>
    <path class="cls-1" d="m68.15,16.86c-4.2,0-7.71,1.45-10.68,4.41-2.96,2.96-4.41,6.47-4.41,10.61s1.45,7.71,4.41,10.68c2.96,2.89,6.47,4.34,10.68,4.34s7.65-1.45,10.61-4.34c2.96-2.96,4.41-6.47,4.41-10.68s-1.45-7.65-4.41-10.61c-2.96-2.96-6.48-4.41-10.61-4.41Zm5.99,21.28c-1.58,1.58-3.58,2.41-5.99,2.41s-4.41-.83-6.06-2.41c-1.58-1.65-2.41-3.72-2.41-6.27s.83-4.61,2.41-6.2c1.65-1.65,3.65-2.48,6.06-2.48s4.41.83,5.99,2.48c1.65,1.58,2.48,3.65,2.48,6.2s-.83,4.61-2.48,6.27Z"></path>
    <path class="cls-1" d="m74.14,55.28c-1.58,1.58-3.58,2.41-5.99,2.41s-4.41-.83-6.06-2.41c-1.58-1.65-2.41-3.72-2.41-6.27h-6.61c0,4.2,1.45,7.71,4.41,10.68,2.96,2.89,6.47,4.34,10.68,4.34s7.65-1.45,10.61-4.34c2.96-2.96,4.41-6.47,4.41-10.68h-6.54c0,2.55-.83,4.61-2.48,6.27Z"></path>
  </g>
  <path class="cls-1" d="m89.43,46.52v-21.64c0-3.54,2.87-6.41,6.41-6.41h0v28.04h-6.41Z"></path>
</svg>
